Coordinates
version=1
nRows=14
nColumns=36
inDegrees=yes

Units are S.I. units (second, meters, Newtons, ...)
If the header above contains a line with 'inDegrees', this indicates whether rotational values are in degrees (yes) or radians (no).

endheader
time	pelvis_tilt	pelvis_list	pelvis_rotation	pelvis_tx	pelvis_ty	pelvis_tz	hip_flexion_r	hip_adduction_r	hip_rotation_r	knee_angle_r	knee_angle_r_beta	ankle_angle_r	subtalar_angle_r	mtp_angle_r	hip_flexion_l	hip_adduction_l	hip_rotation_l	knee_angle_l	knee_angle_l_beta	ankle_angle_l	subtalar_angle_l	mtp_angle_l	lumbar_extension	lumbar_bending	lumbar_rotation	arm_flex_r	arm_add_r	arm_rot_r	elbow_flex_r	pro_sup_r	arm_flex_l	arm_add_l	arm_rot_l	elbow_flex_l	pro_sup_l
      0.00000000	      2.74207438	     -1.86848240	     -0.89096491	     -1.01695693	      1.28399805	     -0.05088887	     -4.63270122	      2.50117426	      5.45565800	      4.17863636	      0.07293096	      1.76217535	    -16.92038636	     -6.16704770	     -8.13624867	     -4.56306980	      1.85716341	      0.84359156	      0.01472345	      8.54955293	    -10.12221648	     -6.16704770	    -10.88837874	      2.52396871	     -1.55622814	      3.55788505	     -7.53631507	      9.22189650	     23.66138617	     76.48512966	      2.34873609	     -7.41160025	     16.62955174	     22.09218268	     66.29082551
      0.00416670	      0.24899116	     -1.79426544	     -2.08164836	     -1.01415054	      1.27874420	     -0.05095070	     -1.54414195	      2.53450235	      6.69192506	      5.32940502	      0.09301566	      5.40157901	    -13.60668080	     -6.57363971	     -5.41240587	     -4.10881221	      2.53153075	      0.97358879	      0.01699233	      8.14593536	    -10.36317017	     -6.57363971	     -7.17426480	      2.80700814	     -1.05920906	      2.75563403	     -6.96245283	      6.41885867	     22.91709280	     73.74694827	      1.16172494	     -5.89022436	     13.38304207	     20.65902345	     64.77969044
      0.00833330	     -0.80515630	     -1.34913630	     -2.71509440	     -1.01356781	      1.27675022	     -0.04979139	     -0.47768090	      1.99739951	      6.57746699	      5.01838937	      0.08758742	      6.11974880	    -12.72921097	     -7.14631882	     -4.40388145	     -3.68075924	      2.12447446	      0.99999393	      0.01745319	      7.91937012	    -10.37470890	     -7.14631882	     -5.76077384	      2.11818013	     -0.53679553	      1.78917805	     -6.17501339	      1.38671250	     23.66178884	     79.99384600	      0.73169909	     -5.93366773	      9.98007572	     21.00021316	     70.21842404
      0.01250000	     -0.64030548	     -1.15507520	     -2.98975537	     -1.01380003	      1.27681664	     -0.04925026	     -0.64263745	      1.75379641	      6.92446494	      4.77953432	      0.08341861	      6.65081819	    -12.17520282	     -7.25859575	     -4.76400758	     -3.36279352	      2.37313664	      0.82366158	      0.01437561	      7.47705909	    -11.48912994	     -7.25859575	     -5.91715667	      1.73832499	     -0.17077165	      1.68287306	     -6.09902622	      1.26593549	     24.07075754	     77.23306668	      0.62835093	     -6.20713468	     11.15620268	     20.87429241	     68.98841839
      0.01666670	     -0.45824206	     -1.10481345	     -3.26071422	     -1.01413773	      1.27740591	     -0.04892212	     -0.89246738	      1.65980324	      7.14714681	      4.61963459	      0.08062783	      6.53311481	    -12.45466617	     -7.36203071	     -5.05067175	     -3.18667542	      2.59320453	      0.75787594	      0.01322743	      7.33760677	    -12.12052410	     -7.36203071	     -6.19511153	      1.64025967	      0.18122910	      1.75920932	     -6.30857894	      2.15353993	     24.48358639	     74.47626721	      0.98034419	     -6.48830717	     14.19592868	     20.47731543	     67.56773308
      0.02083330	     -0.26593572	     -0.94824797	     -3.44457210	     -1.02089080	      1.27738787	     -0.05273727	     -0.83676713	      1.45767026	      7.30857591	      4.70126004	      0.08205247	      6.71510238	    -12.55023991	     -7.36580304	     -5.11730191	     -2.83917182	      3.00625963	      0.79141631	      0.01381282	      7.00166846	    -13.29748697	     -7.36580304	     -6.76263809	      1.57471404	      0.49456559	      2.10786739	     -6.45777424	      2.20940063	     24.53959116	     74.70888543	      1.48844459	     -6.35560705	     14.81772703	     20.45069830	     67.65190546
      0.02500000	      0.00313669	     -0.84893387	     -3.44278011	     -1.01452839	      1.27798755	     -0.04822433	     -1.28771883	      1.40633538	      7.59230321	      4.49487669	      0.07845040	      6.72504562	    -12.64732297	     -7.36973041	     -5.38807044	     -2.70896377	      3.43010111	      0.83721014	      0.01461207	      6.84358910	    -13.90058917	     -7.36973041	     -6.99138279	      1.41270270	      0.55396121	      2.11406782	     -6.37383079	      2.28433665	     24.40997054	     74.83988363	      1.82042354	     -6.45289553	     15.35240961	     20.37168807	     67.62284937
      0.02916670	     -0.00925875	     -0.69157551	     -3.46629820	     -1.01455708	      1.27708675	     -0.04802623	     -1.37306197	      1.30414489	      7.71568953	      4.43577525	      0.07741888	      6.80796317	    -12.94960888	     -7.40963521	     -5.42496439	     -2.55332469	      3.68262437	      0.83496081	      0.01457282	      6.67541032	    -14.55286730	     -7.40963521	     -6.92052348	      1.26245841	      0.72517988	      2.00767749	     -6.37826872	      2.79106787	     24.46920046	     73.16196368	      2.07134449	     -6.55485035	     16.17043287	     20.30562003	     66.32102738
      0.03333330	      0.25185794	     -0.63804287	     -3.45384254	     -1.01476396	      1.27776287	     -0.04802291	     -1.79682449	      1.26913332	      7.77454853	      4.22298243	      0.07370495	      7.04892376	    -12.79394093	     -7.44003057	     -5.70416144	     -2.52343741	      3.84570779	      0.85701323	      0.01495770	      6.60575858	    -14.98218352	     -7.44003057	     -7.21914134	      1.17513335	      0.74809439	      2.04429730	     -6.34280848	      3.07298609	     24.53281689	     71.20038313	      2.25406278	     -6.63448284	     16.34945557	     20.45093599	     64.98831070
      0.03750000	      0.10047544	     -0.59777002	     -3.52444148	     -1.01467110	      1.27323901	     -0.04800655	     -1.74347792	      1.28435938	      8.12761402	      4.10841328	      0.07170534	      6.85557222	    -13.46480571	     -7.44081589	     -5.58706319	     -2.52705686	      3.94298326	      0.84055867	      0.01467052	      6.45595618	    -15.54263217	     -7.44081589	     -6.93253074	      1.11760053	      0.86667744	      1.93135472	     -6.52724110	      3.97629604	     24.61540144	     72.35406414	      2.16730524	     -6.73449770	     17.20231248	     20.49593031	     65.16109336
      0.04166670	     -0.01419378	     -0.55158724	     -3.67114112	     -1.02139503	      1.27407969	     -0.05245619	     -1.45138861	      1.15325879	      8.13899092	      4.15560355	      0.07252896	      6.90625280	    -13.53726783	     -7.44107667	     -5.37090603	     -2.41835438	      3.91276204	      0.81718854	      0.01426263	      6.52499975	    -15.72449578	     -7.44107667	     -6.98110965	      1.17325117	      0.94269903	      2.19574437	     -6.68847515	      3.97801395	     24.67176728	     72.41204858	      2.43581298	     -6.67832289	     17.21684312	     20.57396337	     65.15659546
      0.04583330	     -0.25744906	     -0.48653488	     -3.78213327	     -1.02109939	      1.27787497	     -0.05202739	     -0.97245318	      1.04032414	      8.27703423	      4.24041228	      0.07400916	      6.84518799	    -13.91061426	     -7.44248016	     -5.02535965	     -2.32434605	      4.06096657	      0.78316133	      0.01366874	      6.03182977	    -16.41259113	     -7.44248016	     -6.77445030	      1.18371999	      1.15257491	      2.24493691	     -6.84644823	      4.16238349	     24.71373491	     72.74406795	      2.68887653	     -6.66264429	     17.37590821	     20.60574750	     65.16350471
      0.05000000	     -0.30428718	     -0.49052928	     -3.75480525	     -1.01444270	      1.27416109	     -0.04778619	     -0.98950248	      1.04100903	      8.48277504	      4.04851725	      0.07065996	      6.63806204	    -14.25970681	     -7.44422127	     -5.03681366	     -2.36645341	      4.18808531	      0.74602173	      0.01302054	      5.83237064	    -16.72699069	     -7.44422127	     -6.68007321	      1.18005598	      1.13445415	      2.16369516	     -6.84453137	      4.27548486	     24.67876209	     73.55471796	      2.67304061	     -6.77461671	     17.65118892	     20.66288041	     65.10217810
      0.05416670	     -0.29332950	     -0.54989313	     -3.78700538	     -1.01431623	      1.27788165	     -0.04764903	     -1.12567726	      1.12533916	      8.59638127	      3.89960897	      0.06806102	      6.56810522	    -14.22719261	     -7.48155547	     -5.14321445	     -2.47371413	      4.23648030	      0.69145600	      0.01206818	      5.70407819	    -16.84319876	     -7.48155547	     -6.57859349	      1.23999875	      1.10596613	      2.23347080	     -6.96358340	      4.68049032	     24.73953483	     73.05325308	      2.63346280	     -6.89599631	     18.12717739	     20.68723879	     64.45012306
